<svg width="41" height="40" viewBox="0 0 41 40" fill="none" xmlns="http://www.w3.org/2000/svg">
<g clip-path="url(#clip0_496_1837)">
<path d="M20.5 40C31.5457 40 40.5 31.0457 40.5 20C40.5 8.9543 31.5457 0 20.5 0C9.4543 0 0.5 8.9543 0.5 20C0.5 31.0457 9.4543 40 20.5 40Z" fill="#4E4E4E" fill-opacity="0.4"/>
<path d="M20.5884 33.8984C28.3402 33.8984 34.624 27.6252 34.624 19.887C34.624 12.1488 28.3402 5.87573 20.5884 5.87573C13.234 5.87573 7.20077 11.5222 6.60156 18.7093H25.1536V21.0648H6.60156C7.20077 28.2518 13.234 33.8984 20.5884 33.8984Z" fill="#F2F2F2"/>
</g>
<defs>
<clipPath id="clip0_496_1837">
<rect width="40" height="40" fill="white" transform="translate(0.5)"/>
</clipPath>
</defs>
</svg>
