<svg width="20" height="20" viewBox="0 0 20 20" fill="none" xmlns="http://www.w3.org/2000/svg">
<path d="M19.1667 15C19.1667 15.625 18.9917 16.2166 18.6833 16.7166C18.5083 17.0166 18.2833 17.2833 18.025 17.5C17.4417 18.025 16.675 18.3333 15.8333 18.3333C14.8167 18.3333 13.9083 17.875 13.3083 17.1583C13.2917 17.1333 13.2667 17.1166 13.25 17.0916C13.15 16.975 13.0583 16.85 12.9833 16.7166C12.675 16.2166 12.5 15.625 12.5 15C12.5 13.95 12.9833 13.0083 13.75 12.4C14.325 11.9416 15.05 11.6666 15.8333 11.6666C16.6667 11.6666 17.4167 11.9666 18 12.4749C18.1 12.5499 18.1917 12.6417 18.275 12.7333C18.825 13.3333 19.1667 14.125 19.1667 15Z" stroke="#F2F2F2" stroke-width="1.5" stroke-miterlimit="10" stroke-linecap="round" stroke-linejoin="round"/>
<path d="M17.0747 14.9834H14.5913" stroke="#F2F2F2" stroke-width="1.5" stroke-miterlimit="10" stroke-linecap="round" stroke-linejoin="round"/>
<path d="M15.8333 13.7667V16.2584" stroke="#F2F2F2" stroke-width="1.5" stroke-miterlimit="10" stroke-linecap="round" stroke-linejoin="round"/>
<path d="M2.6416 6.19983L9.99994 10.4582L17.3083 6.2248" stroke="#F2F2F2" stroke-width="1.5" stroke-linecap="round" stroke-linejoin="round"/>
<path d="M10 18.0083V10.45" stroke="#F2F2F2" stroke-width="1.5" stroke-linecap="round" stroke-linejoin="round"/>
<path d="M18.0084 7.64163V12.3583C18.0084 12.4 18.0084 12.4333 18 12.475C17.4167 11.9666 16.6667 11.6666 15.8334 11.6666C15.05 11.6666 14.325 11.9416 13.75 12.4C12.9834 13.0083 12.5 13.95 12.5 15C12.5 15.625 12.675 16.2166 12.9834 16.7166C13.0584 16.85 13.15 16.975 13.25 17.0916L11.725 17.9333C10.775 18.4667 9.22503 18.4667 8.27503 17.9333L3.82503 15.4666C2.8167 14.9083 1.9917 13.5083 1.9917 12.3583V7.64163C1.9917 6.49163 2.8167 5.09164 3.82503 4.53331L8.27503 2.06663C9.22503 1.53329 10.775 1.53329 11.725 2.06663L16.175 4.53331C17.1834 5.09164 18.0084 6.49163 18.0084 7.64163Z" stroke="#F2F2F2" stroke-width="1.5" stroke-linecap="round" stroke-linejoin="round"/>
</svg>
