<svg width="23" height="25" viewBox="0 0 23 25" fill="none" xmlns="http://www.w3.org/2000/svg">
<g clip-path="url(#clip0_443_776)">
<path d="M5.78208 0.170627C5.80365 0.0763927 5.90306 0 6.00412 0H10.9449C11.046 0 11.1105 0.0763927 11.0889 0.170627L10.0346 4.77757C10.0131 4.8718 9.91371 4.94819 9.81263 4.94819H4.8718C4.77073 4.94819 4.70629 4.8718 4.72785 4.77757L5.78208 0.170627Z" fill="#828282"/>
<path d="M12.1869 0.170627C12.2084 0.0763927 12.3078 0 12.4089 0H20.6436C21.8564 0 22.6298 0.916707 22.371 2.04753L19.4816 14.674C19.46 14.7682 19.3606 14.8446 19.2596 14.8446H14.5775C14.4765 14.8446 14.377 14.921 14.3555 15.0152L13.3013 19.6221C13.2797 19.7164 13.3442 19.7927 13.4452 19.7927H18.1273C18.2283 19.7927 18.2928 19.8691 18.2712 19.9634L17.217 24.5704C17.1954 24.6646 17.096 24.741 16.995 24.741H12.0541C11.953 24.741 11.8886 24.6646 11.9102 24.5704L12.9644 19.9634C12.9859 19.8691 12.9215 19.7927 12.8205 19.7927H7.87961C7.77854 19.7927 7.71407 19.7164 7.73567 19.6221L8.7899 15.0152C8.81143 14.921 8.91084 14.8446 9.01191 14.8446H13.9528C14.0538 14.8446 14.1532 14.7682 14.1748 14.674L16.1661 5.97196C16.2955 5.40655 15.9088 4.94819 15.3024 4.94819H11.2766C11.1755 4.94819 11.111 4.8718 11.1326 4.77757L12.1869 0.170627Z" fill="#828282"/>
<path d="M4.63752 5.97196C4.53645 5.97196 4.43705 6.04835 4.41548 6.14256L0.198555 24.5704C0.17699 24.6646 0.241438 24.741 0.342502 24.741H5.28333C5.38439 24.741 5.48381 24.6646 5.50537 24.5704L9.72229 6.14256C9.74388 6.04835 9.67942 5.97196 9.57835 5.97196H4.63752Z" fill="#828282"/>
</g>
<defs>
<clipPath id="clip0_443_776">
<rect width="23" height="25" fill="white"/>
</clipPath>
</defs>
</svg>
