<svg width="40" height="40" viewBox="0 0 40 40" fill="none" xmlns="http://www.w3.org/2000/svg">
<rect width="40" height="40" rx="20" fill="#4E4E4E" fill-opacity="0.4"/>
<path d="M25.53 15.77C25.46 15.76 25.39 15.76 25.32 15.77C23.77 15.72 22.54 14.45 22.54 12.89C22.54 11.3 23.83 10 25.43 10C27.02 10 28.32 11.29 28.32 12.89C28.31 14.45 27.08 15.72 25.53 15.77Z" fill="#F2F2F2"/>
<path d="M28.7901 22.7C27.6701 23.45 26.1001 23.73 24.6501 23.54C25.0301 22.72 25.2301 21.81 25.2401 20.85C25.2401 19.85 25.0201 18.9 24.6001 18.07C26.0801 17.87 27.6501 18.15 28.7801 18.9C30.3601 19.94 30.3601 21.65 28.7901 22.7Z" fill="#F2F2F2"/>
<path d="M14.4399 15.77C14.5099 15.76 14.5799 15.76 14.6499 15.77C16.1999 15.72 17.4299 14.45 17.4299 12.89C17.4299 11.29 16.1399 10 14.5399 10C12.9499 10 11.6599 11.29 11.6599 12.89C11.6599 14.45 12.8899 15.72 14.4399 15.77Z" fill="#F2F2F2"/>
<path d="M14.5501 20.85C14.5501 21.82 14.7601 22.74 15.1401 23.57C13.7301 23.72 12.2601 23.42 11.1801 22.71C9.60012 21.66 9.60012 19.95 11.1801 18.9C12.2501 18.18 13.7601 17.89 15.1801 18.05C14.7701 18.89 14.5501 19.84 14.5501 20.85Z" fill="#F2F2F2"/>
<path d="M20.12 23.87C20.04 23.86 19.95 23.86 19.86 23.87C18.02 23.81 16.55 22.3 16.55 20.44C16.56 18.54 18.09 17 20 17C21.9 17 23.44 18.54 23.44 20.44C23.43 22.3 21.97 23.81 20.12 23.87Z" fill="#F2F2F2"/>
<path d="M16.87 25.94C15.36 26.95 15.36 28.61 16.87 29.61C18.59 30.76 21.41 30.76 23.13 29.61C24.64 28.6 24.64 26.94 23.13 25.94C21.42 24.79 18.6 24.79 16.87 25.94Z" fill="#F2F2F2"/>
</svg>
