<svg width="40" height="40" viewBox="0 0 40 40" fill="none" xmlns="http://www.w3.org/2000/svg">
<rect width="40" height="40" rx="20" fill="#4E4E4E" fill-opacity="0.4"/>
<path d="M19.97 9.57849C14.45 9.57849 9.96997 14.0585 9.96997 19.5785C9.96997 25.0985 14.45 29.5785 19.97 29.5785C25.49 29.5785 29.97 25.0985 29.97 19.5785C29.97 14.0585 25.5 9.57849 19.97 9.57849ZM23.72 19.9285L20 24.1585L19.56 24.6585C18.95 25.3485 18.45 25.1685 18.45 24.2385V20.2785H16.75C15.98 20.2785 15.77 19.8085 16.28 19.2285L20 14.9985L20.44 14.4985C21.05 13.8085 21.55 13.9885 21.55 14.9185V18.8785H23.25C24.02 18.8785 24.23 19.3485 23.72 19.9285Z" fill="#F2F2F2"/>
</svg>
