<svg width="40" height="40" viewBox="0 0 40 40" fill="none" xmlns="http://www.w3.org/2000/svg">
<rect width="40" height="40" rx="20" fill="#4E4E4E" fill-opacity="0.4"/>
<path d="M29.9201 24.75C29.5901 27.41 27.4101 29.59 24.7501 29.92C23.1401 30.12 21.6401 29.68 20.4701 28.82C19.8001 28.33 19.9601 27.29 20.7601 27.05C23.7701 26.14 26.1401 23.76 27.0601 20.75C27.3001 19.96 28.3401 19.8 28.8301 20.46C29.6801 21.64 30.1201 23.14 29.9201 24.75Z" fill="#F2F2F2"/>
<path d="M17.99 10C13.58 10 10 13.58 10 17.99C10 22.4 13.58 25.98 17.99 25.98C22.4 25.98 25.98 22.4 25.98 17.99C25.97 13.58 22.4 10 17.99 10ZM17.05 16.87L19.46 17.71C20.33 18.02 20.75 18.63 20.75 19.57C20.75 20.65 19.89 21.54 18.84 21.54H18.75V21.59C18.75 22 18.41 22.34 18 22.34C17.59 22.34 17.25 22 17.25 21.59V21.53C16.14 21.48 15.25 20.55 15.25 19.39C15.25 18.98 15.59 18.64 16 18.64C16.41 18.64 16.75 18.98 16.75 19.39C16.75 19.75 17.01 20.04 17.33 20.04H18.83C19.06 20.04 19.24 19.83 19.24 19.57C19.24 19.22 19.18 19.2 18.95 19.12L16.54 18.28C15.68 17.98 15.25 17.37 15.25 16.42C15.25 15.34 16.11 14.45 17.16 14.45H17.25V14.41C17.25 14 17.59 13.66 18 13.66C18.41 13.66 18.75 14 18.75 14.41V14.47C19.86 14.52 20.75 15.45 20.75 16.61C20.75 17.02 20.41 17.36 20 17.36C19.59 17.36 19.25 17.02 19.25 16.61C19.25 16.25 18.99 15.96 18.67 15.96H17.17C16.94 15.96 16.76 16.17 16.76 16.43C16.75 16.77 16.81 16.79 17.05 16.87Z" fill="#F2F2F2"/>
</svg>
