<svg width="25" height="25" viewBox="0 0 25 25" fill="none" xmlns="http://www.w3.org/2000/svg">
<path fill-rule="evenodd" clip-rule="evenodd" d="M24.5 12.75C24.5 19.3774 19.1274 24.75 12.5 24.75C5.87258 24.75 0.5 19.3774 0.5 12.75C0.5 6.12258 5.87258 0.75 12.5 0.75C19.1274 0.75 24.5 6.12258 24.5 12.75ZM12.93 9.60893C11.7628 10.0944 9.43014 11.0992 5.93189 12.6233C5.36383 12.8492 5.06626 13.0702 5.03917 13.2863C4.99339 13.6515 5.45071 13.7953 6.07347 13.9911C6.15818 14.0178 6.24595 14.0454 6.33594 14.0746C6.94864 14.2738 7.77283 14.5068 8.20129 14.516C8.58994 14.5244 9.02373 14.3642 9.50264 14.0353C12.7712 11.829 14.4584 10.7138 14.5643 10.6898C14.639 10.6728 14.7426 10.6515 14.8128 10.7138C14.8829 10.7762 14.876 10.8943 14.8686 10.926C14.8233 11.1191 13.0281 12.7881 12.0991 13.6518C11.8095 13.921 11.6041 14.112 11.5621 14.1556C11.468 14.2533 11.3721 14.3458 11.28 14.4346C10.7108 14.9833 10.2839 15.3948 11.3036 16.0668C11.7936 16.3897 12.1858 16.6567 12.577 16.9231C13.0042 17.2141 13.4303 17.5043 13.9816 17.8657C14.1221 17.9577 14.2562 18.0534 14.3869 18.1465C14.8841 18.501 15.3307 18.8194 15.8826 18.7686C16.2032 18.7391 16.5345 18.4376 16.7027 17.5384C17.1002 15.4131 17.8816 10.8085 18.0622 8.91097C18.078 8.74473 18.0581 8.53197 18.0422 8.43857C18.0262 8.34518 17.9928 8.21211 17.8714 8.1136C17.7276 7.99694 17.5056 7.97234 17.4064 7.97408C16.955 7.98203 16.2626 8.22282 12.93 9.60893Z" fill="white"/>
</svg>
