<svg width="25" height="22" viewBox="0 0 25 22" fill="none" xmlns="http://www.w3.org/2000/svg">
<path d="M18.5 1.75H6.5C2.9 1.75 0.5 3.51471 0.5 7.63235V15.8676C0.5 19.9853 2.9 21.75 6.5 21.75H18.5C22.1 21.75 24.5 19.9853 24.5 15.8676V7.63235C24.5 3.51471 22.1 1.75 18.5 1.75ZM19.064 8.91471L15.308 11.8559C14.516 12.4794 13.508 12.7853 12.5 12.7853C11.492 12.7853 10.472 12.4794 9.692 11.8559L5.936 8.91471C5.552 8.60882 5.492 8.04412 5.792 7.66765C6.104 7.29118 6.668 7.22059 7.052 7.52647L10.808 10.4676C11.72 11.1853 13.268 11.1853 14.18 10.4676L17.936 7.52647C18.32 7.22059 18.896 7.27941 19.196 7.66765C19.508 8.04412 19.448 8.60882 19.064 8.91471Z" fill="white"/>
</svg>
