<svg width="40" height="40" viewBox="0 0 40 40" fill="none" xmlns="http://www.w3.org/2000/svg">
<rect width="40" height="40" rx="20" fill="#4E4E4E" fill-opacity="0.4"/>
<path d="M27.3699 12.89L21.5099 10.28C20.6499 9.9 19.3499 9.9 18.4899 10.28L12.6299 12.89C11.1499 13.55 10.9299 14.45 10.9299 14.93C10.9299 15.41 11.1499 16.31 12.6299 16.97L18.4899 19.58C18.9199 19.77 19.4599 19.87 19.9999 19.87C20.5399 19.87 21.0799 19.77 21.5099 19.58L27.3699 16.97C28.8499 16.31 29.0699 15.41 29.0699 14.93C29.0699 14.45 28.8599 13.55 27.3699 12.89Z" fill="#F2F2F2"/>
<path d="M20.0001 25.04C19.6201 25.04 19.2401 24.96 18.8901 24.81L12.1501 21.81C11.1201 21.35 10.3201 20.12 10.3201 18.99C10.3201 18.58 10.6501 18.25 11.0601 18.25C11.4701 18.25 11.8001 18.58 11.8001 18.99C11.8001 19.53 12.2501 20.23 12.7501 20.45L19.4901 23.45C19.8101 23.59 20.1801 23.59 20.5001 23.45L27.2401 20.45C27.7401 20.23 28.1901 19.54 28.1901 18.99C28.1901 18.58 28.5201 18.25 28.9301 18.25C29.3401 18.25 29.6701 18.58 29.6701 18.99C29.6701 20.11 28.8701 21.35 27.8401 21.81L21.1001 24.81C20.7601 24.96 20.3801 25.04 20.0001 25.04Z" fill="#F2F2F2"/>
<path d="M20.0001 30C19.6201 30 19.2401 29.92 18.8901 29.77L12.1501 26.77C11.0401 26.28 10.3201 25.17 10.3201 23.95C10.3201 23.54 10.6501 23.21 11.0601 23.21C11.4701 23.21 11.8001 23.54 11.8001 23.95C11.8001 24.58 12.1701 25.15 12.7501 25.41L19.4901 28.41C19.8101 28.55 20.1801 28.55 20.5001 28.41L27.2401 25.41C27.8101 25.16 28.1901 24.58 28.1901 23.95C28.1901 23.54 28.5201 23.21 28.9301 23.21C29.3401 23.21 29.6701 23.54 29.6701 23.95C29.6701 25.17 28.9501 26.27 27.8401 26.77L21.1001 29.77C20.7601 29.92 20.3801 30 20.0001 30Z" fill="#F2F2F2"/>
</svg>
